<?xml version="1.0" encoding="UTF-8" standalone="no"?>
<svg width="154px" height="161px" viewBox="0 0 154 161" version="1.1" xmlns="http://www.w3.org/2000/svg" xmlns:xlink="http://www.w3.org/1999/xlink">
    <!-- Generator: Sketch 41.2 (35397) - http://www.bohemiancoding.com/sketch -->
    <title>logo</title>
    <desc>Created with Sketch.</desc>
    <defs></defs>
    <g id="Page-1" stroke="none" stroke-width="1" fill="none" fill-rule="evenodd">
        <g id="logo" fill="#FFFFFF">
            <path d="M49.6630859,27.0163574 C45.2209473,13.545166 37.2050781,1.03466797 18.84375,0.739257812 C0.482421875,0.443847656 0.626953125,13.5517578 0.626953125,15.1401367 C0.626953125,16.7285156 2.62353516,25.9912109 12.074707,25.7304688 C21.5258789,25.4697266 21.3496094,16.2490234 30.5205078,16.2490234 C39.6914063,16.2490234 43.0869141,26.5029297 43.0869141,26.5029297 L46.875,31.7001953 C46.875,31.7001953 46.7011719,34.3103027 49.6630859,27.0163574 Z M104,27.2820166 C108.442139,13.8108252 116.458008,1.30032718 134.819336,1.00491702 C153.180664,0.709506867 153.036133,13.817417 153.036133,15.4057959 C153.036133,16.9941748 151.039551,26.2568701 141.588379,25.996128 C132.137207,25.7353858 132.313477,16.5146826 123.142578,16.5146826 C113.97168,16.5146826 110.576172,26.7685889 110.576172,26.7685889 L106.788086,31.9658545 C106.788086,31.9658545 106.961914,34.5759619 104,27.2820166 Z M49.6630859,133.983643 C45.2209473,147.454834 37.2050781,159.965332 18.84375,160.260742 C0.482421875,160.556152 0.626953125,147.448242 0.626953125,145.859863 C0.626953125,144.271484 2.62353516,135.008789 12.074707,135.269531 C21.5258789,135.530273 21.3496094,144.750977 30.5205078,144.750977 C39.6914063,144.750977 43.0869141,134.49707 43.0869141,134.49707 L46.875,129.299805 C46.875,129.299805 46.7011719,126.689697 49.6630859,133.983643 Z M104,133.717983 C108.442139,147.189175 116.458008,159.699673 134.819336,159.995083 C153.180664,160.290493 153.036133,147.182583 153.036133,145.594204 C153.036133,144.005825 151.039551,134.74313 141.588379,135.003872 C132.137207,135.264614 132.313477,144.485317 123.142578,144.485317 C113.97168,144.485317 110.576172,134.231411 110.576172,134.231411 L106.788086,129.034145 C106.788086,129.034145 106.961914,126.424038 104,133.717983 Z" id="Combined-Shape"></path>
            <path d="M26.06,26.88 C26.06,26.88 33.2226562,14.9189453 42.0800781,26.88 L49.7,26.88 L49.7,69.36 C49.7,69.36 68.011862,72.9023438 76.87,72.9023438 C85.728138,72.9023438 104.04,69.36 104.04,69.36 L104.04,26.88 L111.323242,26.88 C119.69043,14.3642578 127.68,26.88 127.68,26.88 L127.68,134 C127.68,134 120.701172,147.537109 110.75,134 C107.395,134 104.04,134 104.04,134 L104.04,89.32 C104.04,89.32 85.9389974,85.9365234 76.87,85.9365234 C67.8010026,85.9365234 49.7,89.32 49.7,89.32 L49.7,134 L42.4101562,134 C33.5136719,146.342773 26.06,134 26.06,134 L26.06,26.88 Z" id="H"></path>
        </g>
    </g>
</svg>