<svg id="SvgjsSvg1011" xmlns="http://www.w3.org/2000/svg" version="1.1" xmlns:xlink="http://www.w3.org/1999/xlink" xmlns:svgjs="http://svgjs.com/svgjs" width="13" height="20" viewBox="0 0 13 20"><title>Forma 1 copy</title><desc>Created with Avocode.</desc><defs id="SvgjsDefs1012"></defs><path id="SvgjsPath1013" d="M129.499 3550C125.91499999999999 3550 123 3552.97 123 3556.62C123 3558.08 123.921 3560.48 125.818 3563.94C127.15899999999999 3566.38 128.478 3568.42 128.533 3568.51L129.499 3570L130.466 3568.51C130.52100000000002 3568.42 131.84 3566.38 133.18200000000002 3563.94C135.07700000000003 3560.48 135.99900000000002 3558.08 135.99900000000002 3556.62C135.99900000000002 3552.97 133.08300000000003 3550 129.49900000000002 3550ZM129.499 3560C127.639 3560 126.13 3558.46 126.13 3556.57C126.13 3554.6800000000003 127.639 3553.1400000000003 129.499 3553.1400000000003C131.361 3553.1400000000003 132.869 3554.6800000000003 132.869 3556.57C132.869 3558.46 131.361 3560 129.499 3560Z " fill="#ffffff" fill-opacity="1" transform="matrix(1,0,0,1,-123,-3550)"></path></svg>