<?xml version="1.0" encoding="UTF-8" standalone="no"?>
<svg width="410px" height="167px" viewBox="0 0 410 167" version="1.1" xmlns="http://www.w3.org/2000/svg" xmlns:xlink="http://www.w3.org/1999/xlink">
    <!-- Generator: Sketch 41.2 (35397) - http://www.bohemiancoding.com/sketch -->
    <title>logo_01</title>
    <desc>Created with Sketch.</desc>
    <defs></defs>
    <g id="Page-1" stroke="none" stroke-width="1" fill="none" fill-rule="evenodd">
        <g id="logo_01" fill="#FFFFFF">
            <path d="M158.388184,121.31543 L157.699707,131 L132.249023,131 L132.249023,129.370605 C132.616213,129.340006 133.147864,129.286459 133.843994,129.209961 C134.540124,129.133463 135.025878,129.034018 135.30127,128.911621 C135.760256,128.712727 136.093017,128.42204 136.299561,128.039551 C136.506105,127.657062 136.609375,127.167483 136.609375,126.570801 L136.609375,103.254395 C136.609375,102.73421 136.521404,102.27523 136.345459,101.877441 C136.169514,101.479653 135.821454,101.158367 135.30127,100.913574 C134.94938,100.72998 134.455976,100.550212 133.821045,100.374268 C133.186113,100.198323 132.662111,100.095052 132.249023,100.064453 L132.249023,98.4350586 L145.995605,98.4350586 L145.995605,100.064453 C145.567218,100.079753 145.012617,100.156249 144.331787,100.293945 C143.650957,100.431641 143.157554,100.554036 142.851562,100.661133 C142.331378,100.844727 141.975668,101.158364 141.784424,101.602051 C141.593179,102.045738 141.497559,102.520017 141.497559,103.024902 L141.497559,124.895508 C141.497559,125.905278 141.547281,126.689369 141.646729,127.247803 C141.746176,127.806237 141.97949,128.238442 142.34668,128.544434 C142.698569,128.819826 143.222571,128.999593 143.918701,129.08374 C144.614831,129.167888 145.590163,129.209961 146.844727,129.209961 C147.41081,129.209961 147.999834,129.194662 148.611816,129.164062 C149.223799,129.133463 149.805173,129.072266 150.355957,128.980469 C150.891441,128.888671 151.384845,128.762452 151.836182,128.601807 C152.287519,128.441161 152.620279,128.238445 152.834473,127.993652 C153.461754,127.289873 154.192297,126.222745 155.026123,124.792236 C155.859949,123.361728 156.437498,122.202804 156.758789,121.31543 L158.388184,121.31543 Z M199.914062,102.290527 C201.352221,103.789884 202.476721,105.599029 203.287598,107.718018 C204.098474,109.837006 204.503906,112.181628 204.503906,114.751953 C204.503906,117.337578 204.090824,119.686025 203.264648,121.797363 C202.438472,123.908702 201.291023,125.706373 199.822266,127.19043 C198.399407,128.659187 196.74708,129.791337 194.865234,130.586914 C192.983389,131.382491 190.979177,131.780273 188.852539,131.780273 C186.588205,131.780273 184.496022,131.355717 182.575928,130.506592 C180.655833,129.657466 179.007331,128.475594 177.630371,126.960938 C176.253411,125.476881 175.170984,123.675385 174.383057,121.556396 C173.59513,119.437408 173.201172,117.169283 173.201172,114.751953 C173.201172,112.10513 173.614254,109.745209 174.44043,107.672119 C175.266606,105.599029 176.406405,103.805183 177.859863,102.290527 C179.298022,100.791171 180.969473,99.6437214 182.874268,98.8481445 C184.779062,98.0525676 186.771799,97.6547852 188.852539,97.6547852 C191.009776,97.6547852 193.044587,98.0602173 194.957031,98.8710938 C196.869476,99.6819702 198.521803,100.82177 199.914062,102.290527 Z M196.494629,125.377441 C197.351404,123.985182 197.974852,122.409351 198.36499,120.649902 C198.755129,118.890453 198.950195,116.92449 198.950195,114.751953 C198.950195,112.518218 198.73218,110.468108 198.296143,108.601562 C197.860105,106.735017 197.221358,105.143887 196.379883,103.828125 C195.538407,102.527663 194.482754,101.514082 193.212891,100.787354 C191.943028,100.060625 190.489592,99.6972656 188.852539,99.6972656 C187.016592,99.6972656 185.456061,100.117997 184.170898,100.959473 C182.885736,101.800948 181.837732,102.925449 181.026855,104.333008 C180.261878,105.679369 179.691978,107.255199 179.317139,109.060547 C178.9423,110.865894 178.754883,112.763011 178.754883,114.751953 C178.754883,116.955089 178.953774,118.944002 179.351562,120.71875 C179.749351,122.493498 180.376623,124.069329 181.233398,125.446289 C182.059574,126.79265 183.099929,127.844479 184.354492,128.601807 C185.609056,129.359135 187.10839,129.737793 188.852539,129.737793 C190.489592,129.737793 191.965976,129.35531 193.281738,128.590332 C194.5975,127.825354 195.668453,126.754401 196.494629,125.377441 Z M265.880859,100.064453 C265.49837,100.079753 265.05469,100.167724 264.549805,100.328369 C264.044919,100.489014 263.57829,100.69938 263.149902,100.959473 C262.614418,101.296063 262.182212,101.682371 261.853271,102.118408 C261.524331,102.554446 261.237469,103.162594 260.992676,103.942871 C259.906407,107.477068 258.644213,111.604062 257.206055,116.323975 C255.767896,121.043888 254.215015,126.073541 252.547363,131.413086 L250.436035,131.413086 L242.220215,106.352539 L233.660156,131.413086 L231.640625,131.413086 C230.125969,126.058241 228.557788,120.500761 226.936035,114.740479 C225.314282,108.980196 224.22803,105.120941 223.677246,103.162598 C223.53955,102.688311 223.336834,102.26758 223.069092,101.900391 C222.80135,101.533201 222.437991,101.196616 221.979004,100.890625 C221.596515,100.630533 221.14901,100.435466 220.636475,100.30542 C220.123939,100.175374 219.661135,100.095052 219.248047,100.064453 L219.248047,98.4350586 L232.535645,98.4350586 L232.535645,100.064453 C231.372878,100.125651 230.382247,100.240396 229.563721,100.408691 C228.745194,100.576987 228.335938,100.860024 228.335938,101.257812 C228.335938,101.410808 228.358886,101.613524 228.404785,101.865967 C228.450684,102.118409 228.488932,102.321126 228.519531,102.474121 C228.871421,103.820482 229.494869,106.042709 230.389893,109.140869 C231.284917,112.239029 232.612133,116.87855 234.371582,123.05957 L242.495605,98.894043 L244.744629,98.894043 L252.9375,123.587402 C254.039068,119.793113 254.987626,116.476984 255.783203,113.638916 C256.57878,110.800848 257.236651,108.37208 257.756836,106.352539 C258.124025,104.92968 258.353515,103.954348 258.445312,103.426514 C258.53711,102.898679 258.583008,102.451174 258.583008,102.083984 C258.583008,101.563799 258.227298,101.127769 257.515869,100.775879 C256.80444,100.423989 255.653166,100.18685 254.062012,100.064453 L254.062012,98.4350586 L265.880859,98.4350586 L265.880859,100.064453 Z M307.819824,121.407227 L307.200195,131 L280.166016,131 L280.166016,129.370605 C280.625002,129.340006 281.236975,129.274984 282.001953,129.175537 C282.766931,129.07609 283.264159,128.97282 283.493652,128.865723 C283.983238,128.636229 284.323648,128.337892 284.514893,127.970703 C284.706137,127.603514 284.801758,127.136884 284.801758,126.570801 L284.801758,103.162598 C284.801758,102.657712 284.717612,102.210207 284.549316,101.820068 C284.381021,101.42993 284.029137,101.112469 283.493652,100.867676 C283.080564,100.668782 282.525964,100.492839 281.829834,100.339844 C281.133704,100.186848 280.579104,100.095052 280.166016,100.064453 L280.166016,98.4350586 L305.364258,98.4350586 L305.364258,106.283691 L303.643066,106.283691 C303.337075,105.120925 302.675379,103.885505 301.657959,102.577393 C300.640539,101.269281 299.672856,100.554037 298.754883,100.431641 C298.280597,100.370442 297.714522,100.324544 297.056641,100.293945 C296.39876,100.263346 295.649093,100.248047 294.807617,100.248047 L289.689941,100.248047 L289.689941,113.191406 L293.361816,113.191406 C294.539882,113.191406 295.400469,113.080486 295.943604,112.858643 C296.486738,112.636799 296.964842,112.26579 297.37793,111.745605 C297.71452,111.301918 298.001382,110.709069 298.238525,109.967041 C298.475669,109.225013 298.632487,108.525068 298.708984,107.867188 L300.430176,107.867188 L300.430176,120.604004 L298.708984,120.604004 C298.647786,119.869625 298.483318,119.093184 298.215576,118.274658 C297.947834,117.456132 297.668621,116.863283 297.37793,116.496094 C296.903643,115.899411 296.364342,115.509278 295.76001,115.325684 C295.155677,115.142089 294.356288,115.050293 293.361816,115.050293 L289.689941,115.050293 L289.689941,124.82666 C289.689941,125.805832 289.758788,126.578448 289.896484,127.144531 C290.03418,127.710615 290.301919,128.138996 290.699707,128.429688 C291.097495,128.720379 291.640622,128.907796 292.329102,128.991943 C293.017582,129.076091 293.996738,129.118164 295.266602,129.118164 L297.263184,129.118164 C298.08936,129.118164 298.785479,129.087565 299.351562,129.026367 C299.932946,128.965169 300.533444,128.854249 301.153076,128.693604 C301.772708,128.532958 302.212564,128.314943 302.472656,128.039551 C303.176436,127.305172 303.914628,126.192146 304.687256,124.700439 C305.459883,123.208733 305.953287,122.111006 306.16748,121.407227 L307.819824,121.407227 Z" id="LOWE"></path>
            <path d="M146.868164,150.509766 L146.578125,155 L133.923828,155 L133.923828,154.237305 C134.138673,154.222982 134.425128,154.192546 134.783203,154.145996 C135.141278,154.099446 135.374023,154.051107 135.481445,154.000977 C135.710613,153.893554 135.869954,153.753907 135.959473,153.582031 C136.048991,153.410155 136.09375,153.191733 136.09375,152.926758 L136.09375,141.969727 C136.09375,141.733397 136.054362,141.523927 135.975586,141.341309 C135.89681,141.15869 135.732098,141.010092 135.481445,140.895508 C135.288085,140.802408 135.028485,140.720052 134.702637,140.648438 C134.376789,140.576823 134.117188,140.533854 133.923828,140.519531 L133.923828,139.756836 L145.71875,139.756836 L145.71875,143.430664 L144.913086,143.430664 C144.769856,142.886391 144.460126,142.308109 143.983887,141.695801 C143.507647,141.083493 143.05469,140.748698 142.625,140.691406 C142.402994,140.66276 142.138022,140.641276 141.830078,140.626953 C141.522134,140.61263 141.171226,140.605469 140.777344,140.605469 L138.381836,140.605469 L138.381836,146.664062 L140.100586,146.664062 C140.652021,146.664062 141.054849,146.612142 141.309082,146.508301 C141.563315,146.404459 141.787108,146.230795 141.980469,145.987305 C142.138022,145.779621 142.272298,145.502118 142.383301,145.154785 C142.494304,144.807453 142.567708,144.479819 142.603516,144.171875 L143.40918,144.171875 L143.40918,150.133789 L142.603516,150.133789 C142.57487,149.790037 142.497885,149.426597 142.372559,149.043457 C142.247232,148.660317 142.116537,148.382813 141.980469,148.210938 C141.758462,147.931639 141.506024,147.749024 141.223145,147.663086 C140.940266,147.577148 140.566083,147.53418 140.100586,147.53418 L138.381836,147.53418 L138.381836,152.110352 C138.381836,152.568687 138.414062,152.930337 138.478516,153.195312 C138.542969,153.460288 138.668293,153.660807 138.854492,153.796875 C139.040691,153.932943 139.29492,154.02067 139.617188,154.060059 C139.939455,154.099447 140.397783,154.119141 140.992188,154.119141 L141.926758,154.119141 C142.313478,154.119141 142.639322,154.104818 142.904297,154.076172 C143.176434,154.047526 143.457518,153.995606 143.747559,153.92041 C144.037599,153.845214 144.243489,153.743165 144.365234,153.614258 C144.694663,153.270506 145.0402,152.749515 145.401855,152.05127 C145.763511,151.353024 145.994466,150.839194 146.094727,150.509766 L146.868164,150.509766 Z M176.666407,140.519531 C176.465885,140.526693 176.157945,140.583984 175.742579,140.691406 C175.327212,140.798829 175.030014,140.90983 174.850977,141.024414 C174.593163,141.203451 174.4195,141.547198 174.329981,142.055664 C174.240462,142.56413 174.195704,143.208655 174.195704,143.989258 L174.195704,155.150391 L173.261133,155.150391 L164.022852,142.678711 L164.022852,150.541992 C164.022852,151.422856 164.078353,152.099607 164.189356,152.572266 C164.300359,153.044924 164.470442,153.381509 164.69961,153.582031 C164.864324,153.739584 165.20449,153.886393 165.720118,154.022461 C166.235745,154.158529 166.575911,154.230143 166.740625,154.237305 L166.740625,155 L160.488672,155 L160.488672,154.237305 C160.682033,154.222982 161.007876,154.153158 161.466211,154.027832 C161.924547,153.902506 162.211002,153.789714 162.325586,153.689453 C162.576239,153.488931 162.748112,153.182782 162.841211,152.770996 C162.934311,152.35921 162.98086,151.655604 162.98086,150.660156 L162.98086,143.151367 C162.98086,142.821938 162.923569,142.492515 162.808985,142.163086 C162.694401,141.833657 162.540431,141.579428 162.347071,141.400391 C162.089257,141.164061 161.740139,140.961752 161.299707,140.793457 C160.859276,140.625162 160.502997,140.533854 160.23086,140.519531 L160.23086,139.756836 L164.581446,139.756836 L173.153711,151.379883 L173.153711,144.128906 C173.153711,143.240881 173.09642,142.558759 172.981836,142.08252 C172.867252,141.60628 172.702541,141.289389 172.487696,141.131836 C172.287174,140.995768 171.95954,140.863282 171.504786,140.734375 C171.050031,140.605468 170.704494,140.533854 170.468164,140.519531 L170.468164,139.756836 L176.666407,139.756836 L176.666407,140.519531 Z M202.887501,143.892578 L202.14629,143.892578 C202.081836,143.634764 201.965464,143.328615 201.797169,142.974121 C201.628874,142.619627 201.440887,142.284832 201.233204,141.969727 C201.018359,141.640298 200.783824,141.352052 200.529591,141.10498 C200.275358,140.857909 200.03008,140.716472 199.793751,140.680664 C199.571744,140.652018 199.29245,140.630534 198.95586,140.616211 C198.61927,140.601888 198.30775,140.594727 198.02129,140.594727 L197.398243,140.594727 L197.398243,152.787109 C197.398243,153.023439 197.448373,153.240071 197.548634,153.437012 C197.648894,153.633953 197.824348,153.786132 198.075001,153.893555 C198.203908,153.943685 198.47425,154.011718 198.886036,154.097656 C199.297822,154.183594 199.618294,154.230143 199.847462,154.237305 L199.847462,155 L192.650196,155 L192.650196,154.237305 C192.850718,154.222982 193.156867,154.194336 193.568653,154.151367 C193.980439,154.108398 194.265104,154.054688 194.422657,153.990234 C194.658986,153.897135 194.83265,153.762859 194.943653,153.587402 C195.054656,153.411946 195.110157,153.17741 195.110157,152.883789 L195.110157,140.594727 L194.48711,140.594727 C194.265104,140.594727 193.98939,140.600098 193.659962,140.61084 C193.330533,140.621582 193.015432,140.644857 192.714649,140.680664 C192.47832,140.70931 192.233042,140.850747 191.978809,141.10498 C191.724576,141.359214 191.490041,141.647459 191.275196,141.969727 C191.060351,142.291994 190.870575,142.63395 190.70586,142.995605 C190.541146,143.357261 190.426564,143.656249 190.36211,143.892578 L189.610157,143.892578 L189.610157,139.756836 L202.887501,139.756836 L202.887501,143.892578 Z M229.52754,150.509766 L229.237501,155 L216.583204,155 L216.583204,154.237305 C216.798049,154.222982 217.084505,154.192546 217.442579,154.145996 C217.800654,154.099446 218.033399,154.051107 218.140821,154.000977 C218.369989,153.893554 218.52933,153.753907 218.618849,153.582031 C218.708367,153.410155 218.753126,153.191733 218.753126,152.926758 L218.753126,141.969727 C218.753126,141.733397 218.713739,141.523927 218.634962,141.341309 C218.556186,141.15869 218.391474,141.010092 218.140821,140.895508 C217.947461,140.802408 217.687861,140.720052 217.362013,140.648438 C217.036165,140.576823 216.776565,140.533854 216.583204,140.519531 L216.583204,139.756836 L228.378126,139.756836 L228.378126,143.430664 L227.572462,143.430664 C227.429232,142.886391 227.119502,142.308109 226.643263,141.695801 C226.167024,141.083493 225.714066,140.748698 225.284376,140.691406 C225.06237,140.66276 224.797399,140.641276 224.489454,140.626953 C224.18151,140.61263 223.830602,140.605469 223.43672,140.605469 L221.041212,140.605469 L221.041212,146.664062 L222.759962,146.664062 C223.311397,146.664062 223.714225,146.612142 223.968458,146.508301 C224.222691,146.404459 224.446485,146.230795 224.639845,145.987305 C224.797398,145.779621 224.931674,145.502118 225.042677,145.154785 C225.15368,144.807453 225.227084,144.479819 225.262892,144.171875 L226.068556,144.171875 L226.068556,150.133789 L225.262892,150.133789 C225.234246,149.790037 225.157261,149.426597 225.031935,149.043457 C224.906609,148.660317 224.775913,148.382813 224.639845,148.210938 C224.417839,147.931639 224.1654,147.749024 223.882521,147.663086 C223.599642,147.577148 223.225459,147.53418 222.759962,147.53418 L221.041212,147.53418 L221.041212,152.110352 C221.041212,152.568687 221.073438,152.930337 221.137892,153.195312 C221.202345,153.460288 221.327669,153.660807 221.513868,153.796875 C221.700067,153.932943 221.954296,154.02067 222.276564,154.060059 C222.598831,154.099447 223.05716,154.119141 223.651564,154.119141 L224.586134,154.119141 C224.972855,154.119141 225.298698,154.104818 225.563673,154.076172 C225.83581,154.047526 226.116894,153.995606 226.406935,153.92041 C226.696975,153.845214 226.902865,153.743165 227.024611,153.614258 C227.354039,153.270506 227.699576,152.749515 228.061232,152.05127 C228.422887,151.353024 228.653842,150.839194 228.754103,150.509766 L229.52754,150.509766 Z M258.530861,155 L254.427345,155 C253.517836,153.574863 252.696066,152.343104 251.962013,151.304688 C251.22796,150.266271 250.431256,149.195644 249.571877,148.092773 L248.014259,148.092773 L248.014259,152.926758 C248.014259,153.17741 248.053647,153.397623 248.132423,153.587402 C248.2112,153.777182 248.379492,153.9222 248.637306,154.022461 C248.766213,154.072591 248.991797,154.11914 249.314064,154.162109 C249.636331,154.205078 249.908464,154.230143 250.13047,154.237305 L250.13047,155 L243.685158,155 L243.685158,154.237305 C243.857034,154.222982 244.105892,154.197917 244.43174,154.162109 C244.757588,154.126302 244.984962,154.079753 245.113869,154.022461 C245.328714,153.929362 245.484474,153.793295 245.581154,153.614258 C245.677834,153.43522 245.726173,153.206056 245.726173,152.926758 L245.726173,141.905273 C245.726173,141.654621 245.690366,141.432618 245.618752,141.239258 C245.547137,141.045897 245.378844,140.899089 245.113869,140.798828 C244.934831,140.734375 244.702086,140.675293 244.415627,140.621582 C244.129167,140.567871 243.88568,140.533854 243.685158,140.519531 L243.685158,139.756836 L250.721291,139.756836 C251.365825,139.756836 251.970962,139.823079 252.53672,139.955566 C253.102478,140.088054 253.614517,140.301105 254.072853,140.594727 C254.516866,140.881186 254.871354,141.255369 255.13633,141.717285 C255.401305,142.179202 255.533791,142.735999 255.533791,143.387695 C255.533791,143.974938 255.444273,144.494138 255.265236,144.945312 C255.086199,145.396487 254.821227,145.786782 254.470314,146.116211 C254.148047,146.424155 253.761332,146.690917 253.310158,146.916504 C252.858984,147.142091 252.361267,147.333658 251.816994,147.491211 C252.568951,148.486659 253.193782,149.324541 253.691505,150.004883 C254.189229,150.685225 254.799737,151.512365 255.523048,152.486328 C255.838154,152.916018 256.122819,153.232909 256.377052,153.437012 C256.631285,153.641114 256.883724,153.807617 257.134377,153.936523 C257.320575,154.029623 257.55332,154.101237 257.832619,154.151367 C258.111917,154.201498 258.344662,154.230143 258.530861,154.237305 L258.530861,155 Z M252.88047,143.634766 C252.88047,142.710933 252.615499,141.978681 252.085548,141.437988 C251.555598,140.897295 250.807233,140.626953 249.840431,140.626953 L248.014259,140.626953 L248.014259,147.168945 L249.421486,147.168945 C250.409772,147.168945 251.233332,146.852054 251.892189,146.218262 C252.551046,145.584469 252.88047,144.723313 252.88047,143.634766 Z M283.387697,143.516602 C283.387697,144.311527 283.231937,145.015134 282.920412,145.627441 C282.608887,146.239749 282.177414,146.746417 281.625978,147.147461 C281.081705,147.548505 280.483729,147.842121 279.832033,148.02832 C279.180337,148.214519 278.489263,148.307617 277.758791,148.307617 L276.050783,148.307617 L276.050783,152.926758 C276.050783,153.17741 276.091961,153.397623 276.174318,153.587402 C276.256675,153.777182 276.426758,153.9222 276.684572,154.022461 C276.813479,154.072591 277.040853,154.11914 277.366701,154.162109 C277.692549,154.205078 277.991537,154.230143 278.263674,154.237305 L278.263674,155 L271.721682,155 L271.721682,154.237305 C271.893557,154.222982 272.142416,154.197917 272.468264,154.162109 C272.794112,154.126302 273.021486,154.079753 273.150393,154.022461 C273.365237,153.929362 273.520998,153.793295 273.617678,153.614258 C273.714358,153.43522 273.762697,153.206056 273.762697,152.926758 L273.762697,141.926758 C273.762697,141.676106 273.72689,141.450522 273.655275,141.25 C273.58366,141.049478 273.415368,140.899089 273.150393,140.798828 C272.878256,140.705729 272.607913,140.639486 272.339357,140.600098 C272.070801,140.560709 271.839847,140.533854 271.646486,140.519531 L271.646486,139.756836 L278.607424,139.756836 C280.0254,139.756836 281.176593,140.098792 282.061037,140.782715 C282.945482,141.466638 283.387697,142.377924 283.387697,143.516602 Z M280.122072,146.116211 C280.365563,145.772459 280.526694,145.41618 280.605471,145.047363 C280.684247,144.678546 280.723635,144.347332 280.723635,144.053711 C280.723635,143.645506 280.675295,143.230145 280.578615,142.807617 C280.481935,142.385089 280.315433,142.016278 280.079103,141.701172 C279.828451,141.364582 279.499027,141.103191 279.090822,140.916992 C278.682617,140.730793 278.174159,140.637695 277.565432,140.637695 L276.050783,140.637695 L276.050783,147.373047 L277.146486,147.373047 C277.919928,147.373047 278.548339,147.253094 279.03174,147.013184 C279.515141,146.773274 279.878581,146.474286 280.122072,146.116211 Z M312.584377,155 L308.480862,155 C307.571352,153.574863 306.749583,152.343104 306.01553,151.304688 C305.281476,150.266271 304.484772,149.195644 303.625393,148.092773 L302.067776,148.092773 L302.067776,152.926758 C302.067776,153.17741 302.107163,153.397623 302.18594,153.587402 C302.264716,153.777182 302.433009,153.9222 302.690823,154.022461 C302.819729,154.072591 303.045313,154.11914 303.36758,154.162109 C303.689848,154.205078 303.96198,154.230143 304.183987,154.237305 L304.183987,155 L297.738674,155 L297.738674,154.237305 C297.91055,154.222982 298.159408,154.197917 298.485256,154.162109 C298.811104,154.126302 299.038478,154.079753 299.167385,154.022461 C299.38223,153.929362 299.53799,153.793295 299.63467,153.614258 C299.73135,153.43522 299.77969,153.206056 299.77969,152.926758 L299.77969,141.905273 C299.77969,141.654621 299.743883,141.432618 299.672268,141.239258 C299.600653,141.045897 299.43236,140.899089 299.167385,140.798828 C298.988348,140.734375 298.755603,140.675293 298.469143,140.621582 C298.182683,140.567871 297.939196,140.533854 297.738674,140.519531 L297.738674,139.756836 L304.774807,139.756836 C305.419341,139.756836 306.024479,139.823079 306.590237,139.955566 C307.155995,140.088054 307.668034,140.301105 308.126369,140.594727 C308.570382,140.881186 308.924871,141.255369 309.189846,141.717285 C309.454821,142.179202 309.587307,142.735999 309.587307,143.387695 C309.587307,143.974938 309.49779,144.494138 309.318752,144.945312 C309.139715,145.396487 308.874744,145.786782 308.52383,146.116211 C308.201563,146.424155 307.814848,146.690917 307.363674,146.916504 C306.9125,147.142091 306.414784,147.333658 305.87051,147.491211 C306.622467,148.486659 307.247298,149.324541 307.745022,150.004883 C308.242746,150.685225 308.853254,151.512365 309.576565,152.486328 C309.891671,152.916018 310.176336,153.232909 310.430569,153.437012 C310.684802,153.641114 310.937241,153.807617 311.187893,153.936523 C311.374092,154.029623 311.606837,154.101237 311.886135,154.151367 C312.165433,154.201498 312.398178,154.230143 312.584377,154.237305 L312.584377,155 Z M306.933987,143.634766 C306.933987,142.710933 306.669015,141.978681 306.139065,141.437988 C305.609114,140.897295 304.860749,140.626953 303.893948,140.626953 L302.067776,140.626953 L302.067776,147.168945 L303.475002,147.168945 C304.463288,147.168945 305.286848,146.852054 305.945705,146.218262 C306.604563,145.584469 306.933987,144.723313 306.933987,143.634766 Z M332.435354,155 L325.571096,155 L325.571096,154.237305 C325.764457,154.222982 326.043751,154.201498 326.408987,154.172852 C326.774223,154.144206 327.032033,154.101237 327.182425,154.043945 C327.418754,153.950846 327.590627,153.823731 327.69805,153.662598 C327.805472,153.501464 327.859182,153.277671 327.859182,152.991211 L327.859182,141.948242 C327.859182,141.69759 327.819795,141.488119 327.741018,141.319824 C327.662242,141.151529 327.476046,141.010092 327.182425,140.895508 C326.96758,140.80957 326.697237,140.729004 326.371389,140.653809 C326.045541,140.578613 325.77878,140.533854 325.571096,140.519531 L325.571096,139.756836 L332.435354,139.756836 L332.435354,140.519531 C332.213348,140.526693 331.948377,140.553548 331.640432,140.600098 C331.332488,140.646647 331.063936,140.705729 330.834768,140.777344 C330.562632,140.863282 330.380016,141.002929 330.286917,141.196289 C330.193817,141.389649 330.147268,141.604491 330.147268,141.84082 L330.147268,152.873047 C330.147268,153.109376 330.199188,153.318847 330.30303,153.501465 C330.406872,153.684083 330.584116,153.829101 330.834768,153.936523 C330.98516,153.993815 331.230437,154.056478 331.570608,154.124512 C331.910779,154.192546 332.199025,154.230143 332.435354,154.237305 L332.435354,155 Z M356.432816,148.006836 C356.755083,148.364911 356.993199,148.756997 357.147171,149.183105 C357.301143,149.609214 357.378128,150.10514 357.378128,150.670898 C357.378128,152.017259 356.880412,153.127274 355.884964,154.000977 C354.889516,154.874679 353.654177,155.311523 352.178909,155.311523 C351.498567,155.311523 350.818236,155.205893 350.137894,154.994629 C349.457552,154.783365 348.870318,154.527345 348.376175,154.226562 L347.914261,155.010742 L347.054886,155.010742 L346.904495,149.790039 L347.774612,149.790039 C347.95365,150.434574 348.16312,151.016436 348.40303,151.535645 C348.64294,152.054853 348.959832,152.540037 349.353714,152.991211 C349.726112,153.413739 350.161166,153.750324 350.65889,154.000977 C351.156614,154.251629 351.734896,154.376953 352.393753,154.376953 C352.887896,154.376953 353.31937,154.312501 353.688187,154.183594 C354.057004,154.054687 354.355991,153.872071 354.585159,153.635742 C354.814327,153.399413 354.98441,153.121909 355.095413,152.803223 C355.206416,152.484536 355.261917,152.117515 355.261917,151.702148 C355.261917,151.093421 355.090044,150.525882 354.746292,149.999512 C354.40254,149.473142 353.890501,149.073895 353.210159,148.801758 C352.744662,148.615559 352.211139,148.409669 351.609573,148.184082 C351.008008,147.958495 350.488807,147.745444 350.051956,147.544922 C349.192577,147.158201 348.524778,146.651533 348.048538,146.024902 C347.572299,145.398272 347.334183,144.580083 347.334183,143.570312 C347.334183,142.990231 347.452346,142.449547 347.688675,141.948242 C347.925004,141.446938 348.261589,140.999351 348.698441,140.605469 C349.113807,140.233071 349.604362,139.941245 350.17012,139.72998 C350.735878,139.518716 351.326693,139.413086 351.942581,139.413086 C352.644408,139.413086 353.272819,139.520507 353.827835,139.735352 C354.382851,139.950196 354.889519,140.200845 355.347855,140.487305 L355.788284,139.756836 L356.647659,139.756836 L356.733597,144.816406 L355.86348,144.816406 C355.705927,144.236325 355.528682,143.681318 355.331741,143.151367 C355.1348,142.621417 354.878781,142.141604 354.563675,141.711914 C354.255731,141.296547 353.879758,140.965333 353.435745,140.718262 C352.991733,140.47119 352.447467,140.347656 351.802933,140.347656 C351.122591,140.347656 350.542518,140.566079 350.062698,141.00293 C349.582878,141.439781 349.342972,141.973304 349.342972,142.603516 C349.342972,143.262373 349.496942,143.808429 349.804886,144.241699 C350.11283,144.67497 350.560417,145.031249 351.147659,145.310547 C351.670448,145.561199 352.184278,145.777831 352.689163,145.960449 C353.194049,146.143067 353.682813,146.338215 354.155472,146.545898 C354.585161,146.732097 354.998732,146.943358 355.396194,147.179688 C355.793657,147.416017 356.139194,147.69173 356.432816,148.006836 Z M384.705667,150.509766 L384.415628,155 L371.761332,155 L371.761332,154.237305 C371.976176,154.222982 372.262632,154.192546 372.620707,154.145996 C372.978781,154.099446 373.211526,154.051107 373.318949,154.000977 C373.548117,153.893554 373.707457,153.753907 373.796976,153.582031 C373.886495,153.410155 373.931253,153.191733 373.931253,152.926758 L373.931253,141.969727 C373.931253,141.733397 373.891866,141.523927 373.813089,141.341309 C373.734313,141.15869 373.569601,141.010092 373.318949,140.895508 C373.125588,140.802408 372.865988,140.720052 372.54014,140.648438 C372.214292,140.576823 371.954692,140.533854 371.761332,140.519531 L371.761332,139.756836 L383.556253,139.756836 L383.556253,143.430664 L382.750589,143.430664 C382.607359,142.886391 382.29763,142.308109 381.82139,141.695801 C381.345151,141.083493 380.892193,140.748698 380.462503,140.691406 C380.240497,140.66276 379.975526,140.641276 379.667582,140.626953 C379.359637,140.61263 379.008729,140.605469 378.614847,140.605469 L376.219339,140.605469 L376.219339,146.664062 L377.938089,146.664062 C378.489524,146.664062 378.892352,146.612142 379.146585,146.508301 C379.400819,146.404459 379.624612,146.230795 379.817972,145.987305 C379.975525,145.779621 380.109801,145.502118 380.220804,145.154785 C380.331807,144.807453 380.405212,144.479819 380.441019,144.171875 L381.246683,144.171875 L381.246683,150.133789 L380.441019,150.133789 C380.412373,149.790037 380.335388,149.426597 380.210062,149.043457 C380.084736,148.660317 379.954041,148.382813 379.817972,148.210938 C379.595966,147.931639 379.343527,147.749024 379.060648,147.663086 C378.777769,147.577148 378.403586,147.53418 377.938089,147.53418 L376.219339,147.53418 L376.219339,152.110352 C376.219339,152.568687 376.251566,152.930337 376.316019,153.195312 C376.380473,153.460288 376.505797,153.660807 376.691996,153.796875 C376.878194,153.932943 377.132424,154.02067 377.454691,154.060059 C377.776958,154.099447 378.235287,154.119141 378.829691,154.119141 L379.764261,154.119141 C380.150982,154.119141 380.476825,154.104818 380.7418,154.076172 C381.013937,154.047526 381.295022,153.995606 381.585062,153.92041 C381.875103,153.845214 382.080992,153.743165 382.202738,153.614258 C382.532167,153.270506 382.877703,152.749515 383.239359,152.05127 C383.601014,151.353024 383.831969,150.839194 383.93223,150.509766 L384.705667,150.509766 Z M408.348637,148.006836 C408.670904,148.364911 408.90902,148.756997 409.062992,149.183105 C409.216964,149.609214 409.293949,150.10514 409.293949,150.670898 C409.293949,152.017259 408.796233,153.127274 407.800785,154.000977 C406.805337,154.874679 405.569998,155.311523 404.09473,155.311523 C403.414388,155.311523 402.734057,155.205893 402.053715,154.994629 C401.373373,154.783365 400.786139,154.527345 400.291996,154.226562 L399.830082,155.010742 L398.970707,155.010742 L398.820316,149.790039 L399.690434,149.790039 C399.869471,150.434574 400.078941,151.016436 400.318851,151.535645 C400.558762,152.054853 400.875653,152.540037 401.269535,152.991211 C401.641933,153.413739 402.076987,153.750324 402.574711,154.000977 C403.072435,154.251629 403.650717,154.376953 404.309574,154.376953 C404.803717,154.376953 405.235191,154.312501 405.604008,154.183594 C405.972825,154.054687 406.271813,153.872071 406.50098,153.635742 C406.730148,153.399413 406.900231,153.121909 407.011234,152.803223 C407.122237,152.484536 407.177738,152.117515 407.177738,151.702148 C407.177738,151.093421 407.005865,150.525882 406.662113,149.999512 C406.318361,149.473142 405.806322,149.073895 405.12598,148.801758 C404.660483,148.615559 404.12696,148.409669 403.525394,148.184082 C402.923829,147.958495 402.404628,147.745444 401.967777,147.544922 C401.108398,147.158201 400.440599,146.651533 399.964359,146.024902 C399.48812,145.398272 399.250004,144.580083 399.250004,143.570312 C399.250004,142.990231 399.368167,142.449547 399.604496,141.948242 C399.840825,141.446938 400.17741,140.999351 400.614262,140.605469 C401.029628,140.233071 401.520183,139.941245 402.085941,139.72998 C402.651699,139.518716 403.242514,139.413086 403.858402,139.413086 C404.560229,139.413086 405.18864,139.520507 405.743656,139.735352 C406.298672,139.950196 406.80534,140.200845 407.263676,140.487305 L407.704105,139.756836 L408.56348,139.756836 L408.649418,144.816406 L407.779301,144.816406 C407.621748,144.236325 407.444503,143.681318 407.247562,143.151367 C407.050621,142.621417 406.794602,142.141604 406.479496,141.711914 C406.171552,141.296547 405.795579,140.965333 405.351566,140.718262 C404.907554,140.47119 404.363288,140.347656 403.718754,140.347656 C403.038412,140.347656 402.45834,140.566079 401.978519,141.00293 C401.498699,141.439781 401.258793,141.973304 401.258793,142.603516 C401.258793,143.262373 401.412763,143.808429 401.720707,144.241699 C402.028651,144.67497 402.476238,145.031249 403.06348,145.310547 C403.586269,145.561199 404.100099,145.777831 404.604984,145.960449 C405.10987,146.143067 405.598634,146.338215 406.071293,146.545898 C406.500983,146.732097 406.914553,146.943358 407.312016,147.179688 C407.709478,147.416017 408.055015,147.69173 408.348637,148.006836 Z" id="ENTERPRISES"></path>
            <path d="M47.9179688,15.7954423 L47.9179688,14.1875 L57.5317044,24.2148553 L59.7356733,26.2498309 L59.3835464,26.6311999 L59.3835464,108.859929 L91.3955567,108.859929 L102.538013,120.002385 L68.2923922,120.002385 L47.9179688,99.6279618 L47.9179688,16.6993451 L47.4674517,16.2833722 L47.9179687,15.7954423 Z M29.9179688,15.7954423 L29.9179688,14.1875 L39.5317044,24.2148553 L41.7356733,26.2498309 L41.3835464,26.6311999 L41.3835464,124.859929 L89.3955567,124.859929 L100.538013,136.002385 L50.2923922,136.002385 L29.9179688,115.627962 L29.9179688,16.6993451 L29.4674517,16.2833722 L29.9179687,15.7954423 Z M11.9179688,15.7954423 L11.9179688,14.1875 L21.5317044,24.2148553 L23.7356733,26.2498309 L23.3835464,26.6311999 L23.3835464,139.859929 L84.3955567,139.859929 L95.5380131,151.002385 L32.2923922,151.002385 L11.9179688,130.627962 L11.9179688,16.6993451 L11.4674517,16.2833722 L11.9179687,15.7954423 Z M0.611328125,1.22851562 L0.611328125,136.932471 L30.0647315,166.385874 L114.051397,166.385874 L114.051397,116.848479 L93.9751164,96.772198 L71.9317113,96.772198 L71.9317113,20.3292675 L49.5292969,0.263671875 L0.611328125,1.22851562 Z" id="Combined-Shape"></path>
        </g>
    </g>
</svg>